<svg xmlns="http://www.w3.org/2000/svg" viewBox="0 0 64 64" fill="none">
  <rect width="64" height="64" rx="12" fill="#140507"/>
  <rect x="4" y="4" width="56" height="56" rx="10" fill="#2B090C" stroke="#5E1712" stroke-width="2"/>
  <path d="M8 44C16 36 24 34 32 36C40 38 48 34 56 26V56H8V44Z" fill="#5A1214"/>
  <path d="M8 50C16 44 23 42 32 44C41 46 48 42 56 36V56H8V50Z" fill="#9A2B16"/>
  <path d="M8 56C15 50 24 48 32 50C40 52 49 48 56 42V56H8Z" fill="#DA5D1F"/>
  <circle cx="32" cy="24" r="12" fill="#2C0707" stroke="#F05A24" stroke-width="2"/>
  <circle cx="32" cy="24" r="5" fill="#140507"/>
  <rect x="30" y="14" width="4" height="20" fill="#FFB21F"/>
  <rect x="22" y="22" width="20" height="4" fill="#FFB21F"/>
  <path d="M18 14L23 8L25 16Z" fill="#D7BA55"/>
  <path d="M46 14L41 8L39 16Z" fill="#D7BA55"/>
</svg>
